<svg width="1136" height="745" viewBox="0 0 1136 745" fill="none" xmlns="http://www.w3.org/2000/svg">
<mask id="mask0_30_29" style="mask-type:alpha" maskUnits="userSpaceOnUse" x="0" y="0" width="1136" height="745">
<rect x="0.5" y="0.5" width="1135" height="744" fill="#D9D9D9" stroke="white"/>
</mask>
<g mask="url(#mask0_30_29)">
<path d="M197.236 98.981H198.386V97.8315H197.236V98.981ZM103.689 98.981V97.8315H102.54V98.981H103.689ZM103.689 190H102.54V191.15H103.689V190ZM197.236 190V191.15H198.386V190H197.236ZM197.236 165.981H198.386V164.832H197.236V165.981ZM135.293 165.981H134.143V167.131H135.293V165.981ZM135.293 156.5V155.35H134.143V156.5H135.293ZM194.708 156.5V157.649H195.858V156.5H194.708ZM194.708 132.481H195.858V131.332H194.708V132.481ZM135.293 132.481H134.143V133.631H135.293V132.481ZM135.293 123V121.85H134.143V123H135.293ZM197.236 123V124.149H198.386V123H197.236ZM197.236 97.8315H103.689V100.131H197.236V97.8315ZM102.54 98.981V190H104.839V98.981H102.54ZM103.689 191.15H197.236V188.85H103.689V191.15ZM198.386 190V165.981H196.087V190H198.386ZM197.236 164.832H135.293V167.131H197.236V164.832ZM136.443 165.981V156.5H134.143V165.981H136.443ZM135.293 157.649H194.708V155.35H135.293V157.649ZM195.858 156.5V132.481H193.559V156.5H195.858ZM194.708 131.332H135.293V133.631H194.708V131.332ZM136.443 132.481V123H134.143V132.481H136.443ZM135.293 124.149H197.236V121.85H135.293V124.149ZM198.386 123V98.981H196.087V123H198.386ZM319.584 153.213L320.727 153.332L320.859 152.064H319.584V153.213ZM285.957 153.213V152.064H285.027L284.833 152.974L285.957 153.213ZM285.957 135.515L284.834 135.759L285.031 136.665H285.957V135.515ZM319.584 135.515V136.665H320.86L320.727 135.396L319.584 135.515ZM207.568 144.364C207.568 160.676 212.781 173.073 222.609 181.366C232.404 189.631 246.614 193.678 264.34 193.678V191.379C246.923 191.379 233.322 187.398 224.091 179.609C214.894 171.847 209.867 160.161 209.867 144.364H207.568ZM264.34 193.678C280.98 193.678 294.39 190.205 304.005 183.384C313.655 176.537 319.369 166.396 320.727 153.332L318.44 153.094C317.144 165.567 311.733 175.082 302.674 181.509C293.579 187.961 280.695 191.379 264.34 191.379V193.678ZM319.584 152.064H285.957V154.363H319.584V152.064ZM284.833 152.974C283.71 158.254 277.849 164.832 264.34 164.832V167.131C278.642 167.131 285.677 160.056 287.082 153.452L284.833 152.974ZM264.34 164.832C256.416 164.832 251.066 162.504 247.687 158.891C244.294 155.263 242.735 150.175 242.735 144.364H240.436C240.436 150.562 242.1 156.283 246.008 160.461C249.929 164.654 255.957 167.131 264.34 167.131V164.832ZM242.735 144.364C242.735 138.614 244.264 133.593 247.637 130.014C250.997 126.45 256.346 124.149 264.34 124.149V121.85C255.901 121.85 249.872 124.291 245.964 128.437C242.068 132.57 240.436 138.231 240.436 144.364H242.735ZM264.34 124.149C277.866 124.149 283.716 130.615 284.834 135.759L287.081 135.271C285.671 128.785 278.626 121.85 264.34 121.85V124.149ZM285.957 136.665H319.584V134.365H285.957V136.665ZM320.727 135.396C319.368 122.391 313.619 112.312 303.953 105.515C294.324 98.7435 280.916 95.3032 264.34 95.3032V97.6022C280.632 97.6022 293.519 100.988 302.631 107.396C311.706 113.777 317.144 123.23 318.44 135.634L320.727 135.396ZM264.34 95.3032C246.616 95.3032 232.406 99.3173 222.611 107.534C212.782 115.779 207.568 128.113 207.568 144.364H209.867C209.867 128.632 214.893 117.01 224.089 109.295C233.319 101.552 246.921 97.6022 264.34 97.6022V95.3032ZM363.803 98.981H364.953V97.8315H363.803V98.981ZM332.2 98.981V97.8315H331.05V98.981H332.2ZM332.2 190H331.05V191.15H332.2V190ZM423.219 190V191.15H424.368V190H423.219ZM423.219 163.453H424.368V162.303H423.219V163.453ZM363.803 163.453H362.654V164.602H363.803V163.453ZM363.803 97.8315H332.2V100.131H363.803V97.8315ZM331.05 98.981V190H333.349V98.981H331.05ZM332.2 191.15H423.219V188.85H332.2V191.15ZM424.368 190V163.453H422.069V190H424.368ZM423.219 162.303H363.803V164.602H423.219V162.303ZM364.953 163.453V98.981H362.654V163.453H364.953ZM566.866 190V191.15H568.691L567.903 189.503L566.866 190ZM523.253 98.981L524.289 98.4843L523.976 97.8315H523.253V98.981ZM478.249 98.981V97.8315H477.525L477.212 98.4843L478.249 98.981ZM434.635 190L433.599 189.503L432.81 191.15H434.635V190ZM468.262 190V191.15H468.993L469.303 190.487L468.262 190ZM475.72 174.072V172.922H474.989L474.679 173.584L475.72 174.072ZM525.781 174.072L526.822 173.584L526.512 172.922H525.781V174.072ZM533.239 190L532.198 190.487L532.508 191.15H533.239V190ZM500.751 120.724L501.791 120.235L500.751 118.027L499.711 120.235L500.751 120.724ZM515.162 151.317V152.466H516.974L516.202 150.827L515.162 151.317ZM486.339 151.317L485.299 150.827L484.527 152.466H486.339V151.317ZM567.903 189.503L524.289 98.4843L522.216 99.4777L565.829 190.497L567.903 189.503ZM523.253 97.8315H478.249V100.131H523.253V97.8315ZM477.212 98.4843L433.599 189.503L435.672 190.497L479.285 99.4777L477.212 98.4843ZM434.635 191.15H468.262V188.85H434.635V191.15ZM469.303 190.487L476.761 174.559L474.679 173.584L467.221 189.513L469.303 190.487ZM475.72 175.221H525.781V172.922H475.72V175.221ZM524.74 174.559L532.198 190.487L534.28 189.513L526.822 173.584L524.74 174.559ZM533.239 191.15H566.866V188.85H533.239V191.15ZM499.711 121.214L514.122 151.807L516.202 150.827L501.791 120.235L499.711 121.214ZM515.162 150.167H486.339V152.466H515.162V150.167ZM487.379 151.807L501.791 121.214L499.711 120.235L485.299 150.827L487.379 151.807ZM195.214 277.224L194.839 276.138L195.145 278.372L195.214 277.224ZM103.689 221.981V220.831H102.54V221.981H103.689ZM103.689 313H102.54V314.15H103.689V313ZM135.293 313V314.15H136.443V313H135.293ZM135.293 289.74V288.59H134.143V289.74H135.293ZM180.55 313H179.4V314.15H180.55V313ZM212.153 313V314.15H213.303V313H212.153ZM135.293 264.457H134.143V265.606H135.293V264.457ZM135.293 247.264V246.115H134.143V247.264H135.293ZM195.589 278.311C201.272 276.351 205.733 273.248 208.761 268.766C211.783 264.291 213.303 258.55 213.303 251.436H211.004C211.004 258.228 209.554 263.484 206.855 267.479C204.162 271.467 200.154 274.305 194.839 276.138L195.589 278.311ZM213.303 251.436C213.303 241.621 210.072 233.891 203.466 228.65C196.907 223.446 187.191 220.831 174.482 220.831V223.131C186.929 223.131 196.049 225.699 202.037 230.451C207.978 235.165 211.004 242.162 211.004 251.436H213.303ZM174.482 220.831H103.689V223.131H174.482V220.831ZM102.54 221.981V313H104.839V221.981H102.54ZM103.689 314.15H135.293V311.85H103.689V314.15ZM136.443 313V289.74H134.143V313H136.443ZM135.293 290.889H170.436V288.59H135.293V290.889ZM170.436 290.889C174.467 290.889 176.541 291.48 177.698 292.685C178.868 293.904 179.4 296.058 179.4 300.106H181.699C181.699 296.063 181.22 293.034 179.356 291.093C177.479 289.137 174.497 288.59 170.436 288.59V290.889ZM179.4 300.106V313H181.699V300.106H179.4ZM180.55 314.15H212.153V311.85H180.55V314.15ZM213.303 313V294.796H211.004V313H213.303ZM213.303 294.796C213.303 289.128 211.617 284.577 208.436 281.362C205.262 278.155 200.731 276.405 195.283 276.077L195.145 278.372C200.19 278.676 204.128 280.276 206.801 282.979C209.467 285.673 211.004 289.593 211.004 294.796H213.303ZM166.897 248.414C168.68 248.414 170.284 248.414 171.716 248.543C173.149 248.672 174.318 248.923 175.244 249.373C176.14 249.808 176.832 250.44 177.318 251.407C177.819 252.402 178.136 253.818 178.136 255.86H180.435C180.435 253.604 180.088 251.797 179.372 250.374C178.642 248.923 177.564 247.944 176.248 247.305C174.962 246.68 173.476 246.393 171.922 246.253C170.367 246.114 168.653 246.115 166.897 246.115V248.414ZM178.136 255.86C178.136 257.902 177.819 259.319 177.318 260.313C176.832 261.281 176.14 261.913 175.244 262.348C174.318 262.798 173.149 263.048 171.716 263.177C170.284 263.306 168.68 263.307 166.897 263.307V265.606C168.653 265.606 170.367 265.607 171.922 265.467C173.476 265.327 174.962 265.041 176.248 264.416C177.564 263.777 178.642 262.797 179.372 261.347C180.088 259.924 180.435 258.116 180.435 255.86H178.136ZM166.897 263.307H135.293V265.606H166.897V263.307ZM136.443 264.457V247.264H134.143V264.457H136.443ZM135.293 248.414H166.897V246.115H135.293V248.414ZM320.936 221.981H322.085V220.831H320.936V221.981ZM227.388 221.981V220.831H226.239V221.981H227.388ZM227.388 313H226.239V314.15H227.388V313ZM320.936 313V314.15H322.085V313H320.936ZM320.936 288.981H322.085V287.832H320.936V288.981ZM258.992 288.981H257.843V290.131H258.992V288.981ZM258.992 279.5V278.35H257.843V279.5H258.992ZM318.407 279.5V280.649H319.557V279.5H318.407ZM318.407 255.481H319.557V254.332H318.407V255.481ZM258.992 255.481H257.843V256.631H258.992V255.481ZM258.992 246V244.85H257.843V246H258.992ZM320.936 246V247.149H322.085V246H320.936ZM320.936 220.831H227.388V223.131H320.936V220.831ZM226.239 221.981V313H228.538V221.981H226.239ZM227.388 314.15H320.936V311.85H227.388V314.15ZM322.085 313V288.981H319.786V313H322.085ZM320.936 287.832H258.992V290.131H320.936V287.832ZM260.142 288.981V279.5H257.843V288.981H260.142ZM258.992 280.649H318.407V278.35H258.992V280.649ZM319.557 279.5V255.481H317.258V279.5H319.557ZM318.407 254.332H258.992V256.631H318.407V254.332ZM260.142 255.481V246H257.843V255.481H260.142ZM258.992 247.149H320.936V244.85H258.992V247.149ZM322.085 246V221.981H319.786V246H322.085ZM464.647 313V314.15H466.473L465.684 312.503L464.647 313ZM421.034 221.981L422.071 221.484L421.758 220.831H421.034V221.981ZM376.03 221.981V220.831H375.306L374.993 221.484L376.03 221.981ZM332.417 313L331.38 312.503L330.591 314.15H332.417V313ZM366.043 313V314.15H366.774L367.084 313.487L366.043 313ZM373.502 297.072V295.922H372.771L372.461 296.584L373.502 297.072ZM423.562 297.072L424.603 296.584L424.293 295.922H423.562V297.072ZM431.021 313L429.98 313.487L430.29 314.15H431.021V313ZM398.532 243.724L399.572 243.235L398.532 241.027L397.492 243.235L398.532 243.724ZM412.943 274.317V275.466H414.756L413.983 273.827L412.943 274.317ZM384.121 274.317L383.081 273.827L382.309 275.466H384.121V274.317ZM465.684 312.503L422.071 221.484L419.997 222.478L463.611 313.497L465.684 312.503ZM421.034 220.831H376.03V223.131H421.034V220.831ZM374.993 221.484L331.38 312.503L333.454 313.497L377.067 222.478L374.993 221.484ZM332.417 314.15H366.043V311.85H332.417V314.15ZM367.084 313.487L374.543 297.559L372.461 296.584L365.002 312.513L367.084 313.487ZM373.502 298.221H423.562V295.922H373.502V298.221ZM422.521 297.559L429.98 313.487L432.062 312.513L424.603 296.584L422.521 297.559ZM431.021 314.15H464.647V311.85H431.021V314.15ZM397.492 244.214L411.903 274.807L413.983 273.827L399.572 243.235L397.492 244.214ZM412.943 273.167H384.121V275.466H412.943V273.167ZM385.161 274.807L399.572 244.214L397.492 243.235L383.081 273.827L385.161 274.807ZM506.391 221.981H507.54V220.831H506.391V221.981ZM474.787 221.981V220.831H473.638V221.981H474.787ZM474.787 313H473.638V314.15H474.787V313ZM565.806 313V314.15H566.956V313H565.806ZM565.806 286.453H566.956V285.303H565.806V286.453ZM506.391 286.453H505.241V287.602H506.391V286.453ZM506.391 220.831H474.787V223.131H506.391V220.831ZM473.638 221.981V313H475.937V221.981H473.638ZM474.787 314.15H565.806V311.85H474.787V314.15ZM566.956 313V286.453H564.657V313H566.956ZM565.806 285.303H506.391V287.602H565.806V285.303ZM507.54 286.453V221.981H505.241V286.453H507.54ZM578.487 221.981V220.831H577.338V221.981H578.487ZM578.487 313H577.338V314.15H578.487V313ZM610.091 313V314.15H611.241V313H610.091ZM610.091 221.981H611.241V220.831H610.091V221.981ZM577.338 221.981V313H579.637V221.981H577.338ZM578.487 314.15H610.091V311.85H578.487V314.15ZM611.241 313V221.981H608.941V313H611.241ZM610.091 220.831H578.487V223.131H610.091V220.831ZM731.494 221.981H732.644V220.831H731.494V221.981ZM622.777 221.981V220.831H621.627V221.981H622.777ZM622.777 248.528H621.627V249.678H622.777V248.528ZM661.334 248.528H662.483V247.379H661.334V248.528ZM661.334 313H660.184V314.15H661.334V313ZM692.937 313V314.15H694.087V313H692.937ZM692.937 248.528V247.379H691.788V248.528H692.937ZM731.494 248.528V249.678H732.644V248.528H731.494ZM731.494 220.831H622.777V223.131H731.494V220.831ZM621.627 221.981V248.528H623.926V221.981H621.627ZM622.777 249.678H661.334V247.379H622.777V249.678ZM660.184 248.528V313H662.483V248.528H660.184ZM661.334 314.15H692.937V311.85H661.334V314.15ZM694.087 313V248.528H691.788V313H694.087ZM692.937 249.678H731.494V247.379H692.937V249.678ZM732.644 248.528V221.981H730.345V248.528H732.644ZM805.028 256.113L804.108 256.802L805.028 258.032L805.949 256.802L805.028 256.113ZM779.492 221.981L780.413 221.292L780.068 220.831H779.492V221.981ZM740.304 221.981V220.831H737.9L739.409 222.703L740.304 221.981ZM789.226 282.66H790.376V282.255L790.121 281.939L789.226 282.66ZM789.226 313H788.077V314.15H789.226V313ZM820.83 313V314.15H821.98V313H820.83ZM820.83 282.66L819.935 281.939L819.681 282.255V282.66H820.83ZM869.753 221.981L870.648 222.703L872.156 220.831H869.753V221.981ZM830.564 221.981V220.831H829.989L829.644 221.292L830.564 221.981ZM805.949 255.424L780.413 221.292L778.572 222.67L804.108 256.802L805.949 255.424ZM779.492 220.831H740.304V223.131H779.492V220.831ZM739.409 222.703L788.331 283.382L790.121 281.939L741.199 221.259L739.409 222.703ZM788.077 282.66V313H790.376V282.66H788.077ZM789.226 314.15H820.83V311.85H789.226V314.15ZM821.98 313V282.66H819.681V313H821.98ZM821.725 283.382L870.648 222.703L868.858 221.259L819.935 281.939L821.725 283.382ZM869.753 220.831H830.564V223.131H869.753V220.831ZM829.644 221.292L804.108 255.424L805.949 256.802L831.485 222.67L829.644 221.292Z" fill="white"/>
<path opacity="0.1" d="M1030.08 397.721L491.271 290.21L266.08 650.845L751.345 784.558L1030.08 397.721Z" fill="url(#paint0_linear_30_29)"/>
<g filter="url(#filter0_b_30_29)">
<rect width="548.073" height="232.743" rx="116.372" transform="matrix(0.952264 0.305275 -0.241663 0.97036 511.399 169.873)" fill="url(#paint1_linear_30_29)"/>
<rect x="0.355301" y="0.637818" width="547.073" height="231.743" rx="115.872" transform="matrix(0.952264 0.305275 -0.241663 0.97036 511.57 169.784)" stroke="url(#paint2_linear_30_29)"/>
</g>
<rect x="0.355301" y="0.637818" width="486.19" height="205.889" rx="102.945" transform="matrix(0.952264 0.305275 -0.241663 0.97036 539.315 189.161)" fill="url(#paint3_linear_30_29)" stroke="url(#paint4_linear_30_29)"/>
<rect opacity="0.5" x="0.355301" y="0.637818" width="547.073" height="231.743" rx="115.872" transform="matrix(0.952264 0.305275 -0.241663 0.97036 496.94 190.088)" fill="url(#paint5_linear_30_29)" stroke="url(#paint6_linear_30_29)"/>
<g opacity="0.4">
<circle cx="19.2815" cy="25.2815" r="3.28151" fill="white"/>
<circle cx="19.2815" cy="36.021" r="3.28151" fill="white"/>
<circle cx="19.2815" cy="46.7605" r="3.28151" fill="white"/>
<circle cx="19.2815" cy="57.5" r="3.28151" fill="white"/>
<circle cx="19.2815" cy="68.2395" r="3.28151" fill="white"/>
<circle cx="19.2815" cy="78.979" r="3.28151" fill="white"/>
<circle cx="19.2815" cy="89.7185" r="3.28151" fill="white"/>
</g>
<g opacity="0.4">
<circle cx="1073.28" cy="483.282" r="3.28151" fill="white"/>
<circle cx="1073.28" cy="494.021" r="3.28151" fill="white"/>
<circle cx="1073.28" cy="504.761" r="3.28151" fill="white"/>
<circle cx="1073.28" cy="515.5" r="3.28151" fill="white"/>
<circle cx="1073.28" cy="526.24" r="3.28151" fill="white"/>
<circle cx="1073.28" cy="536.979" r="3.28151" fill="white"/>
<circle cx="1073.28" cy="547.719" r="3.28151" fill="white"/>
</g>
<circle cx="520.5" cy="406.5" r="79" stroke="white"/>
</g>
<defs>
<filter id="filter0_b_30_29" x="464.736" y="184.911" width="558.99" height="363.083" filterUnits="userSpaceOnUse" color-interpolation-filters="sRGB">
<feFlood flood-opacity="0" result="BackgroundImageFix"/>
<feGaussianBlur in="BackgroundImage" stdDeviation="7.5"/>
<feComposite in2="SourceAlpha" operator="in" result="effect1_backgroundBlur_30_29"/>
<feBlend mode="normal" in="SourceGraphic" in2="effect1_backgroundBlur_30_29" result="shape"/>
</filter>
<linearGradient id="paint0_linear_30_29" x1="382.633" y1="1263.12" x2="705.488" y2="352.222" gradientUnits="userSpaceOnUse">
<stop offset="0.622623" stop-color="#C4C4C4" stop-opacity="0"/>
<stop offset="0.732186" stop-color="#C4C4C4"/>
<stop offset="0.91695" stop-color="#C4C4C4" stop-opacity="0"/>
</linearGradient>
<linearGradient id="paint1_linear_30_29" x1="274.036" y1="-63.0346" x2="274.036" y2="277.128" gradientUnits="userSpaceOnUse">
<stop stop-color="white"/>
<stop offset="0.145833" stop-color="white" stop-opacity="0.26"/>
<stop offset="0.505208" stop-color="white" stop-opacity="0"/>
<stop offset="0.796875" stop-color="white" stop-opacity="0.14"/>
<stop offset="1" stop-color="white"/>
</linearGradient>
<linearGradient id="paint2_linear_30_29" x1="273.833" y1="-30.4736" x2="268.849" y2="285.013" gradientUnits="userSpaceOnUse">
<stop stop-color="white"/>
<stop offset="0.395833" stop-color="white" stop-opacity="0"/>
<stop offset="1" stop-color="white"/>
</linearGradient>
<linearGradient id="paint3_linear_30_29" x1="243.595" y1="-56.0324" x2="243.595" y2="246.344" gradientUnits="userSpaceOnUse">
<stop stop-color="white"/>
<stop offset="0.145833" stop-color="white" stop-opacity="0.26"/>
<stop offset="0.505208" stop-color="white" stop-opacity="0"/>
<stop offset="0.796875" stop-color="white" stop-opacity="0.14"/>
<stop offset="1" stop-color="white"/>
</linearGradient>
<linearGradient id="paint4_linear_30_29" x1="243.414" y1="-27.0885" x2="238.984" y2="253.353" gradientUnits="userSpaceOnUse">
<stop stop-color="white"/>
<stop offset="0.395833" stop-color="white" stop-opacity="0"/>
<stop offset="1" stop-color="white"/>
</linearGradient>
<linearGradient id="paint5_linear_30_29" x1="274.036" y1="-63.0346" x2="274.036" y2="277.128" gradientUnits="userSpaceOnUse">
<stop stop-color="white"/>
<stop offset="0.145833" stop-color="white" stop-opacity="0.26"/>
<stop offset="0.505208" stop-color="white" stop-opacity="0"/>
<stop offset="0.796875" stop-color="white" stop-opacity="0.14"/>
<stop offset="1" stop-color="white"/>
</linearGradient>
<linearGradient id="paint6_linear_30_29" x1="273.833" y1="-30.4736" x2="268.849" y2="285.013" gradientUnits="userSpaceOnUse">
<stop stop-color="white"/>
<stop offset="0.395833" stop-color="white" stop-opacity="0"/>
<stop offset="1" stop-color="white"/>
</linearGradient>
</defs>
</svg>
